<?xml version="1.0" encoding="UTF-8"?>
<svg version="1.1" xmlns="http://www.w3.org/2000/svg" width="1580" height="1368">
<path d="M0 0 C3.37078575 2.36800719 6.7979824 4.62148884 10.27734375 6.828125 C33.49042287 21.60767537 55.79501124 37.16253651 76.96484375 54.765625 C77.58665527 55.28157227 78.2084668 55.79751953 78.84912109 56.32910156 C86.12627273 62.39179071 93.01701681 68.66295123 99.63671875 75.4375 C101.44198121 77.24276246 103.21685669 78.87576679 105.21484375 80.453125 C108.2273567 82.98637452 110.64248027 85.74774385 113.1875 88.73828125 C114.83364886 90.61597632 116.54219491 92.34690198 118.33984375 94.078125 C122.46066667 98.14424673 126.02535065 102.61433269 129.64013672 107.12890625 C131.05508297 108.8771185 132.49396627 110.60345535 133.9375 112.328125 C148.09486739 129.32526035 160.16897595 147.46973655 170.96484375 166.765625 C171.47257324 167.67119141 171.98030273 168.57675781 172.50341797 169.50976562 C205.05057313 228.18455996 219.23677538 294.79040186 219.15234375 361.515625 C219.1517395 362.40780731 219.15113525 363.29998962 219.1505127 364.21920776 C218.96926862 463.56859163 189.94041292 558.66507036 96.54882812 666.37133789 C91.67313643 671.19275185 86.72285816 675.68789698 81.31640625 679.91015625 C79.03486754 681.71037367 76.91199258 683.60737242 74.77734375 685.578125 C55.73648557 702.5812773 33.30762798 716.56654472 10.96484375 728.765625 C10.09069824 729.24451172 9.21655273 729.72339844 8.31591797 730.21679688 C-38.54149853 755.70457993 -93.91223718 776.7682813 -147.79248047 778.05639648 C-165.92905827 778.09618377 -165.92905827 778.09618377 -183.26272583 782.79849243 C-186.76281151 784.01945972 -189.72579731 784.03460303 -193.43310547 784.05615234 C-194.52459648 784.06622818 -194.52459648 784.06622818 -195.63813782 784.07650757 C-198.03877657 784.09546584 -200.43913481 784.09941219 -202.83984375 784.1015625 C-204.52312328 784.10799746 -206.20640171 784.11472633 -207.88967896 784.12173462 C-211.42192163 784.13370594 -214.95406659 784.13741615 -218.48632812 784.13623047 C-222.97234554 784.13602856 -227.4577203 784.16319787 -231.94358635 784.19777489 C-235.4253109 784.22023267 -238.9068862 784.22406212 -242.38867569 784.22301102 C-244.03978795 784.22534382 -245.69090584 784.23403349 -247.34194565 784.24967575 C-249.67614614 784.26969979 -252.00903126 784.26335769 -254.34326172 784.25146484 C-255.66276825 784.25431488 -256.98227478 784.25716492 -258.34176636 784.26010132 C-262.42343951 784.0304864 -266.05065886 782.93019002 -269.96071655 781.76600593 C-277.33495643 779.70627015 -284.25287747 779.20325958 -291.91958141 779.26505375 C-293.89781946 779.2567825 -293.89781946 779.2567825 -295.91602191 779.24834415 C-299.54507855 779.2337315 -303.17369772 779.2436733 -306.80273992 779.25795614 C-310.76280938 779.26907713 -314.72282144 779.25682532 -318.68288642 779.24764866 C-325.6129445 779.2347795 -332.54287453 779.23667938 -339.47293282 779.24842834 C-349.77817926 779.26585141 -360.08332548 779.26029665 -370.3885772 779.25026143 C-388.79534705 779.23308763 -407.20205727 779.23859857 -425.60882588 779.25361862 C-441.71513707 779.26667666 -457.82142758 779.27186515 -473.92774391 779.26930046 C-474.99661738 779.26914005 -476.06549085 779.26897963 -477.16675443 779.26881435 C-481.50576009 779.26815076 -485.84476574 779.26744834 -490.18377139 779.26668901 C-530.87344323 779.25966741 -571.56307867 779.27514866 -612.25274125 779.30131247 C-648.39938124 779.32443193 -684.54598123 779.32981361 -720.69262695 779.31958008 C-729.95065401 779.31697804 -739.20868107 779.31439303 -748.46670818 779.31198215 C-749.60649928 779.31168471 -750.74629038 779.31138726 -751.92062061 779.3110808 C-782.13164031 779.30346592 -812.34265675 779.30987796 -842.553675 779.32067817 C-845.80434992 779.32182597 -849.05502485 779.32296915 -852.30569978 779.324105 C-854.46207661 779.32486025 -856.61845343 779.32562589 -858.77483025 779.32640201 C-874.87269898 779.33205971 -890.97055736 779.33073084 -907.06842613 779.32617378 C-925.37066232 779.32106631 -943.67285977 779.32691764 -961.97508629 779.34706808 C-972.21731497 779.35805458 -982.45946748 779.36084741 -992.70169849 779.35177955 C-999.54367509 779.34655941 -1006.38558652 779.35225971 -1013.22754945 779.36683289 C-1017.12530459 779.37483527 -1021.02290581 779.37816187 -1024.9206601 779.36826033 C-1029.12332422 779.3577058 -1033.32560364 779.37040942 -1037.52825451 779.38530827 C-1038.73260166 779.37857061 -1039.93694881 779.37183296 -1041.17779133 779.36489114 C-1049.27057857 779.42045812 -1057.67413661 780.08511518 -1065.03515625 783.765625 C-1067.14834286 783.90368086 -1069.26583631 783.97730575 -1071.38305664 784.02197266 C-1072.03569489 784.03657532 -1072.68833313 784.05117798 -1073.36074829 784.06622314 C-1079.46498591 784.19373077 -1085.57056974 784.26143573 -1091.67586613 784.31406593 C-1095.75977061 784.34940179 -1099.84163589 784.40158792 -1103.92456055 784.49951172 C-1124.79140612 784.98738068 -1141.74846382 783.72129673 -1161.03515625 774.765625 C-1162.41941085 774.17150069 -1163.80582623 773.58236654 -1165.19506836 773 C-1168.5056414 771.57036719 -1171.74035052 770.05066574 -1174.97265625 768.453125 C-1176.08962891 767.9075293 -1177.20660156 767.36193359 -1178.35742188 766.79980469 C-1188.15662682 761.90584367 -1197.24880147 756.29400696 -1206.03515625 749.765625 C-1207.01742188 749.04375 -1207.9996875 748.321875 -1209.01171875 747.578125 C-1236.03516781 726.53331511 -1256.0135978 696.61294052 -1260.56640625 662.1953125 C-1262.42137958 644.08824329 -1262.52726885 624.45921553 -1258.03515625 606.765625 C-1257.84711426 605.99460449 -1257.65907227 605.22358398 -1257.46533203 604.42919922 C-1248.22715293 567.57202482 -1225.42611757 536.17935101 -1192.84765625 516.515625 C-1171.03093196 503.92348868 -1146.80689442 497.70000606 -1121.68212891 497.56030273 C-1120.55122644 497.55040314 -1119.42032398 497.54050354 -1118.25515175 497.53030396 C-1115.08474712 497.5039198 -1111.91434987 497.48196123 -1108.74389744 497.46230197 C-1106.65656316 497.44894581 -1104.56924584 497.43400354 -1102.48192596 497.41856575 C-1092.9357288 497.3479954 -1083.38949122 497.28845907 -1073.84319305 497.23339844 C-1069.52571624 497.20843222 -1065.20825237 497.18170748 -1060.89078939 497.15446532 C-1003.34551749 496.79250241 -945.8007646 496.7305528 -888.25458652 496.73794284 C-885.58549504 496.73828081 -882.91640356 496.73857269 -880.24731207 496.73885608 C-844.28900278 496.74285805 -808.33070357 496.75575362 -772.37240839 496.78855199 C-758.53531535 496.80112615 -744.69822217 496.81063591 -730.86112547 496.81814033 C-721.9549797 496.82316654 -713.04884935 496.83151597 -704.14271135 496.84434881 C-698.10279303 496.85281178 -692.06287862 496.85762774 -686.02295475 496.85966961 C-682.56965747 496.86096454 -679.11638266 496.86384065 -675.66309285 496.87136257 C-663.56269264 496.89495176 -651.46318758 496.89565935 -639.36953735 496.44702148 C-638.56127577 496.42492394 -637.75301419 496.4028264 -636.92025983 496.38005924 C-629.89434916 496.05887627 -622.87153097 494.81747054 -617.09765625 490.640625 C-610.8798821 481.97342466 -610.88533066 471.06586951 -610.89039612 460.77389526 C-610.88686927 459.91515938 -610.88334243 459.05642349 -610.87970871 458.17166531 C-610.86910723 455.31870221 -610.86535572 452.46577261 -610.86157227 449.61279297 C-610.85526023 447.55701052 -610.84849372 445.50122942 -610.84130859 443.44544983 C-610.82668168 439.02903401 -610.81493946 434.61262331 -610.80536079 430.1961937 C-610.78984932 423.20150057 -610.76589924 416.20685188 -610.74046326 409.21218872 C-610.66942045 389.32540705 -610.60956284 369.43860011 -610.55834961 349.55175781 C-610.52996906 338.56009915 -610.49454728 327.56848492 -610.45169586 316.57687294 C-610.42505416 309.63565612 -610.40706897 302.69448948 -610.39565861 295.75323176 C-610.38647583 291.41822385 -610.36908774 287.08327648 -610.34947968 282.74830437 C-610.3420619 280.75181095 -610.33792664 278.75530193 -610.33748436 276.75879478 C-610.3246383 244.65126701 -610.3246383 244.65126701 -602.41015625 230.953125 C-593.1764798 222.44842301 -580.74649871 221.50328102 -568.76928711 221.15332031 C-567.62449103 221.11586323 -566.47969496 221.07840614 -565.30020809 221.039814 C-547.04311569 220.51567473 -528.77174116 220.58128119 -510.50880933 220.56543636 C-507.25804244 220.56247171 -504.0072788 220.55836187 -500.7565136 220.55393219 C-490.54558985 220.54034329 -480.33467383 220.5306273 -470.12374169 220.5267303 C-458.40364706 220.52222915 -446.68366786 220.50455046 -434.96360832 220.4757297 C-425.84362891 220.45409008 -416.72368201 220.44402529 -407.60367721 220.44268918 C-402.17995358 220.44164555 -396.75633977 220.43582839 -391.33264351 220.41786957 C-386.24584222 220.40134251 -381.15923304 220.39925576 -376.0724144 220.40800858 C-374.21492305 220.40877566 -372.3574211 220.40447993 -370.49995613 220.39455032 C-356.73538816 220.3253119 -343.2430601 220.63547873 -332.03515625 229.765625 C-324.00092747 238.47928116 -322.56784449 249.65778859 -322.71044922 261.06420898 C-322.7121633 262.68079013 -322.7121633 262.68079013 -322.71391201 264.33002949 C-322.72101712 267.89079281 -322.74928998 271.45106407 -322.77734375 275.01171875 C-322.78590032 277.54900672 -322.7929621 280.08630012 -322.79862976 282.62359619 C-322.81307353 288.01731343 -322.83585674 293.41088606 -322.86624146 298.80453491 C-322.91323459 307.23074445 -322.93817982 315.65693662 -322.95678711 324.08325195 C-322.95833546 324.78233968 -322.9598838 325.48142741 -322.96147907 326.20169961 C-322.96918163 329.73282196 -322.9764747 333.26394492 -322.98346901 336.79506874 C-322.98913163 339.62370313 -322.99551501 342.45233447 -323.00253868 345.28096581 C-323.06388962 370.1289748 -322.94807064 394.97193456 -322.63077545 419.81816483 C-322.59792724 422.43156502 -322.56729672 425.04498249 -322.53729248 427.65841675 C-322.49018599 431.72422822 -322.43833658 435.78994903 -322.38208961 439.85564423 C-322.36236679 441.29910642 -322.34363896 442.74258272 -322.32611656 444.1860733 C-322.23139978 451.76177919 -321.99789975 459.31721658 -321.56298828 466.88037109 C-321.50294538 467.93259118 -321.50294538 467.93259118 -321.44168949 469.00606823 C-321.09422372 474.64724226 -320.40537754 480.15436187 -319.34765625 485.703125 C-319.17395508 486.62569092 -319.00025391 487.54825684 -318.82128906 488.4987793 C-314.87644793 508.36143044 -307.07965354 527.42968281 -295.03515625 543.765625 C-294.4215625 544.60222656 -293.80796875 545.43882812 -293.17578125 546.30078125 C-272.79065252 572.87726106 -244.28397344 588.35533215 -211.3046875 593.328125 C-182.38493185 596.74060781 -152.34664472 590.70630412 -128.66015625 573.328125 C-100.50580527 551.08695071 -83.07157738 520.90621447 -75.78515625 485.890625 C-75.55832153 484.81566772 -75.55832153 484.81566772 -75.3269043 483.71899414 C-71.28900187 462.63115702 -71.70892942 441.21149682 -71.67450488 419.84257722 C-71.66453904 414.97653306 -71.64331381 410.11053498 -71.62365723 405.24452209 C-71.58709473 395.73414376 -71.56110969 386.22376557 -71.53926709 376.71334311 C-71.52137794 368.97047275 -71.50007273 361.2276189 -71.47640419 353.4847641 C-71.47134836 351.82498163 -71.47134836 351.82498163 -71.4661904 350.1316682 C-71.45934042 347.88289127 -71.45248929 345.63411436 -71.44563702 343.38533744 C-71.38203055 322.33758029 -71.33120365 301.28980646 -71.2842165 280.24200663 C-71.24097262 261.05602443 -71.18119986 241.87013544 -71.11362144 222.68422487 C-71.04415761 202.91728482 -70.98629249 183.15034073 -70.94058305 163.38333106 C-70.91477599 152.31273102 -70.88453652 141.24218819 -70.84203148 130.17163849 C-70.8059422 120.74142465 -70.78092749 111.31125637 -70.76945593 101.88097927 C-70.76333144 97.08502764 -70.7526121 92.28922162 -70.72799873 87.49332619 C-70.63452772 68.67704446 -70.81688693 50.11083498 -73.07012004 31.40755391 C-74.69613946 17.36910284 -75.06766207 3.07279041 -65.91015625 -8.546875 C-46.42709126 -29.28962091 -18.58463764 -13.07224512 0 0 Z " fill="#000000" transform="translate(1261.03515625,584.234375)"/>
<path d="M0 0 C2.78213741 -0.01070947 5.56408055 -0.02810475 8.34613037 -0.05255127 C29.62470193 -0.2214143 50.87510209 0.66664911 71.60018921 5.91867065 C72.6235437 6.17213257 73.64689819 6.42559448 74.70126343 6.68673706 C84.49411242 9.23071077 93.63024906 12.83066406 102.72518921 17.23117065 C103.40259155 17.55343628 104.0799939 17.8757019 104.77792358 18.20773315 C133.4153035 32.00752837 154.31448449 56.43562095 169.41859436 83.89266968 C170.23752951 85.35837318 171.07569147 86.81367436 171.94132996 88.25228882 C181.12844176 103.64592596 181.35023176 119.45747707 181.28305054 136.85372925 C181.27341847 140.00802772 181.32146572 143.15235738 181.42660522 146.30490112 C182.24166757 171.07066858 177.1982964 187.50671153 163.72518921 208.23117065 C162.61152106 210.03860263 161.50324402 211.84937572 160.40219116 213.66452026 C155.50080431 221.726522 149.92329951 229.11219825 143.72518921 236.23117065 C143.1206189 236.95691284 142.51604858 237.68265503 141.89315796 238.4303894 C137.87211856 243.19572955 133.53968846 247.27780135 128.72518921 251.23117065 C127.71585327 252.07808472 126.70651733 252.92499878 125.66659546 253.7975769 C100.64322957 274.41444929 71.08745107 283.61682361 38.79473877 283.46495056 C37.2328784 283.46510702 35.67101792 283.46614973 34.10915864 283.46799082 C29.85299001 283.47050246 25.59692931 283.46064447 21.34078026 283.44864285 C16.73103041 283.43787979 12.1212807 283.4388411 7.51152039 283.43836975 C-0.48583675 283.43601099 -8.4831589 283.42644141 -16.48050308 283.41206551 C-28.15196518 283.3911994 -39.82341263 283.38266719 -51.49489091 283.37714415 C-70.5784417 283.36788331 -89.66197543 283.35045165 -108.74551392 283.32711792 C-110.45725923 283.32502795 -110.45725923 283.32502795 -112.20358525 283.32289576 C-114.51095518 283.32007619 -116.81832511 283.31725653 -119.12569504 283.31443679 C-120.26796781 283.31304234 -121.41024059 283.31164789 -122.58712769 283.31021118 C-123.72929942 283.30881586 -124.87147115 283.30742053 -126.04825414 283.30598292 C-138.56289893 283.29082804 -151.07754565 283.27782893 -163.5921936 283.26559448 C-164.70586442 283.26450363 -165.81953523 283.26341278 -166.96695365 283.26228888 C-185.87976495 283.24393931 -204.79257811 283.23010235 -223.70539463 283.21842283 C-234.25284447 283.21166981 -244.80028073 283.20244565 -255.3477211 283.18657112 C-299.14944597 283.12127064 -342.95053391 283.16171217 -386.75124717 283.49656188 C-391.19676229 283.53022395 -395.64224117 283.55744607 -400.08783174 283.57886899 C-405.28373544 283.60441985 -410.47933441 283.64438329 -415.67504898 283.69536681 C-417.5781183 283.71179598 -419.48123687 283.72338516 -421.38436684 283.72963528 C-438.42810516 283.30770208 -438.42810516 283.30770208 -453.83731079 289.48117065 C-458.68085468 294.94568171 -459.8087119 300.76710738 -460.44535828 307.81599426 C-460.52509134 308.64038937 -460.60482441 309.46478447 -460.68697363 310.31416124 C-461.55846334 320.15885641 -461.5599955 329.99852294 -461.54605103 339.87399292 C-461.55045085 341.96891988 -461.55575751 344.0638451 -461.56188965 346.1587677 C-461.57328662 350.62796149 -461.57884134 355.09710853 -461.57977104 359.5663166 C-461.58172948 366.64026738 -461.59987499 373.71412257 -461.62052917 380.78804016 C-461.66945861 398.34191252 -461.70063158 415.89581031 -461.72183228 433.44973755 C-461.73837051 447.12986147 -461.76118855 460.80990178 -461.80485302 474.48996967 C-461.82657264 481.51625128 -461.83469283 488.54237374 -461.83246028 495.5686866 C-461.83413022 499.93842447 -461.84819655 504.30805864 -461.86567307 508.67775917 C-461.8712573 510.6973266 -461.87177193 512.71691566 -461.86673546 514.73648453 C-461.83645969 528.30159165 -461.88918519 540.45903218 -471.27481079 551.23117065 C-482.49204814 561.09545175 -498.16929836 559.66241928 -512.07925415 559.61935425 C-514.28798176 559.62342399 -516.49670733 559.62876813 -518.70542908 559.63528442 C-524.68065061 559.6489166 -530.65571607 559.64367605 -536.6309402 559.63414717 C-542.8980225 559.62652838 -549.16509183 559.63360242 -555.43217468 559.63830566 C-566.62907724 559.64410591 -577.82592276 559.63480781 -589.02281166 559.61952765 C-599.15396552 559.60612934 -609.28501621 559.60845187 -619.41616821 559.62228394 C-631.20801667 559.63837603 -642.99981493 559.64429434 -654.79167467 559.63544714 C-661.02380477 559.63078237 -667.25586396 559.63011276 -673.48798943 559.64005661 C-679.34940434 559.64875633 -685.21062547 559.64264947 -691.07201958 559.62537384 C-693.21652404 559.62142486 -695.36104496 559.62251564 -697.50554276 559.62916183 C-727.93248438 559.71472817 -727.93248438 559.71472817 -738.39981079 550.32492065 C-746.55295146 541.8120826 -749.44889611 532.37756028 -749.38833618 520.76667786 C-749.38848504 520.02322021 -749.3886339 519.27976256 -749.38878727 518.51377589 C-749.38809353 516.02493254 -749.38025306 513.53616327 -749.37246704 511.04733276 C-749.37054687 509.25906923 -749.36908354 507.47080516 -749.36804199 505.68254089 C-749.36487738 501.82324674 -749.35860092 497.96397441 -749.34997559 494.10468864 C-749.33636967 487.94450425 -749.33053762 481.78432699 -749.32583618 475.62413025 C-749.31379654 461.37239819 -749.29208083 447.12068402 -749.26960754 432.86896515 C-749.05574125 371.70990887 -749.05574125 371.70990887 -749.53826904 310.55404854 C-749.57001788 308.48632261 -749.59784226 306.41853115 -749.62097168 304.35069084 C-750.06213798 267.72375246 -759.05968931 233.49084735 -785.83145142 207.20748901 C-806.8022782 187.34083358 -838.0577375 172.31328448 -867.27481079 171.23117065 C-868.56387329 171.17960815 -869.85293579 171.12804565 -871.18106079 171.07492065 C-898.99908806 170.32913727 -923.52180974 178.84672277 -945.27481079 196.23117065 C-946.05727173 196.84605347 -946.83973267 197.46093628 -947.64590454 198.0944519 C-979.06649726 224.25027508 -990.2277492 269.56187902 -993.85186768 308.44525528 C-995.4518561 326.13851436 -995.41051248 343.83743078 -995.37621737 361.58660913 C-995.36975796 365.52420365 -995.36926704 369.4617998 -995.36804199 373.3993988 C-995.36516818 380.22401712 -995.35874548 387.04862444 -995.34997559 393.87323761 C-995.33725747 403.85224305 -995.33130471 413.83124458 -995.32704222 423.81025681 C-995.31998013 440.15450334 -995.30920377 456.49874495 -995.2953186 472.84298706 C-995.29449079 473.81904296 -995.29366298 474.79509887 -995.29281008 475.80073223 C-995.28527847 484.63904882 -995.27749825 493.47736518 -995.26960754 502.31568146 C-995.11838329 671.77740744 -995.11838329 671.77740744 -995.5639534 729.50985622 C-995.58696373 732.72948457 -995.60477712 735.94910062 -995.62097168 739.16876984 C-995.64627269 744.05419743 -995.68593165 748.93928348 -995.73793411 753.82449818 C-995.75427536 755.54695955 -995.76603997 757.26947263 -995.77244186 758.99199963 C-995.88475487 785.97169639 -995.88475487 785.97169639 -1003.27481079 794.23117065 C-1007.76007205 798.27884545 -1011.22947088 799.68825493 -1017.34512329 799.55148315 C-1033.45058246 797.79061962 -1048.06591282 789.42356686 -1062.27481079 782.23117065 C-1063.06387817 781.83913452 -1063.85294556 781.44709839 -1064.66592407 781.04318237 C-1085.12449743 770.87213577 -1104.21442353 758.17676865 -1122.27481079 744.23117065 C-1123.24418579 743.4835144 -1124.21356079 742.73585815 -1125.21231079 741.96554565 C-1127.59569691 740.08633737 -1129.94256338 738.17343571 -1132.27481079 736.23117065 C-1132.77142212 735.81802612 -1133.26803345 735.40488159 -1133.7796936 734.97921753 C-1141.08783519 728.8854462 -1148.25974988 722.66164315 -1155.27481079 716.23117065 C-1155.82846313 715.72795288 -1156.38211548 715.22473511 -1156.95254517 714.70626831 C-1169.54904554 703.25026189 -1169.54904554 703.25026189 -1174.77871704 696.9772644 C-1176.3171647 695.18173933 -1177.94774807 693.55898054 -1179.64981079 691.91867065 C-1183.38124626 688.24540901 -1186.62655736 684.23934693 -1189.90371704 680.16085815 C-1192.23003175 677.28649895 -1194.62260073 674.47968469 -1197.02481079 671.66867065 C-1203.55006186 663.84647527 -1209.43047355 655.56874291 -1215.27481079 647.23117065 C-1215.71293091 646.60903687 -1216.15105103 645.98690308 -1216.60244751 645.34591675 C-1236.66837822 616.66779365 -1252.34884306 585.07360007 -1264.27481079 552.23117065 C-1264.64831665 551.20572144 -1265.02182251 550.18027222 -1265.40664673 549.12374878 C-1277.43393142 515.66504007 -1284.98556437 479.75632027 -1287.27481079 444.23117065 C-1287.32975708 443.40762085 -1287.38470337 442.58407104 -1287.4413147 441.73556519 C-1293.82347761 341.71069333 -1266.36355897 245.11831576 -1189.27481079 146.23117065 C-1188.66379517 145.51960815 -1188.05277954 144.80804565 -1187.42324829 144.07492065 C-1185.72463908 142.11065218 -1184.00508513 140.16760534 -1182.27481079 138.23117065 C-1181.52457642 137.38812378 -1180.77434204 136.5450769 -1180.00137329 135.67648315 C-1174.35976782 129.42497439 -1168.53102672 123.38376686 -1162.58731079 117.41867065 C-1161.53664429 116.36111572 -1161.53664429 116.36111572 -1160.4647522 115.28219604 C-1155.89700965 110.72787856 -1151.16520025 106.43467545 -1146.27481079 102.23117065 C-1145.22670535 101.30547861 -1144.17975456 100.37847691 -1143.13418579 99.44992065 C-1128.4581884 86.55489954 -1112.60938203 74.93688619 -1096.27481079 64.23117065 C-1095.51716431 63.73439819 -1094.75951782 63.23762573 -1093.97891235 62.72579956 C-1034.43084633 24.04243196 -967.18908211 2.0114448 -896.21815491 2.11764526 C-893.55531894 2.11792554 -890.89248572 2.11780499 -888.22965008 2.11719418 C-882.45114463 2.11666325 -876.6726505 2.11981444 -870.89414787 2.12542343 C-862.29429798 2.13374655 -853.69445314 2.13624848 -845.09459966 2.13754776 C-830.58926742 2.13988202 -816.08394069 2.14673619 -801.57861137 2.15600586 C-781.62600542 2.16869203 -761.67340127 2.17467231 -741.72079194 2.17893922 C-732.37747799 2.18094583 -723.03416412 2.18327392 -713.69085026 2.1856842 C-712.75504281 2.18592522 -711.81923536 2.18616623 -710.8550701 2.18641455 C-688.56700424 2.19222883 -666.27893981 2.20117605 -643.99087524 2.21066284 C-643.0162126 2.21107649 -642.04154996 2.21149013 -641.03735209 2.21191631 C-622.35793454 2.21984965 -603.67851712 2.22806984 -584.99909973 2.2363739 C-573.37135826 2.24154156 -561.74361677 2.24664387 -550.11587524 2.25167847 C-549.16109325 2.25209306 -548.20631125 2.25250765 -547.22259646 2.2529348 C-525.2255646 2.26246857 -503.22853291 2.27101216 -481.23149967 2.2766571 C-480.29377056 2.2768981 -479.35604144 2.27713909 -478.38989629 2.27738739 C-468.99611667 2.27977995 -459.60233702 2.28200716 -450.20855731 2.28399364 C-431.23254044 2.28803928 -412.25652914 2.29404732 -393.28051567 2.30633545 C-321.41215839 2.35238488 -249.54803701 2.29075874 -177.68130493 1.76242065 C-176.9431122 1.75701843 -176.20491946 1.7516162 -175.44435725 1.74605027 C-140.62522679 1.49098022 -105.80746874 1.16517317 -70.99045388 0.70047855 C-66.83380293 0.6454613 -62.67712646 0.59246742 -58.52044773 0.53959656 C-57.7779474 0.530115 -57.03544706 0.52063344 -56.27044671 0.51086456 C-37.51417704 0.27253829 -18.75773151 0.06956223 0 0 Z " fill="#000000" transform="translate(1400.2748107910156,-0.231170654296875)"/>
</svg>
